<?xml version="1.0" encoding="UTF-8" standalone="no"?>
<!-- Created with Inkscape (http://www.inkscape.org/) -->
<svg
   xmlns:dc="http://purl.org/dc/elements/1.1/"
   xmlns:cc="http://creativecommons.org/ns#"
   xmlns:rdf="http://www.w3.org/1999/02/22-rdf-syntax-ns#"
   xmlns:svg="http://www.w3.org/2000/svg"
   xmlns="http://www.w3.org/2000/svg"
   xmlns:sodipodi="http://sodipodi.sourceforge.net/DTD/sodipodi-0.dtd"
   xmlns:inkscape="http://www.inkscape.org/namespaces/inkscape"
   width="1772.1573"
   height="1396.0605"
   id="svg2"
   sodipodi:version="0.32"
   inkscape:version="0.46"
   version="1.0"
   sodipodi:docname="etoiles.svg"
   inkscape:output_extension="org.inkscape.output.svg.inkscape"
   inkscape:export-filename="Y:\USDP\SGBag\res\img\etoiles.png"
   inkscape:export-xdpi="32.248829"
   inkscape:export-ydpi="32.248829">
  <defs
     id="defs4">
    <inkscape:perspective
       sodipodi:type="inkscape:persp3d"
       inkscape:vp_x="0 : 526.18109 : 1"
       inkscape:vp_y="0 : 1000 : 0"
       inkscape:vp_z="744.09448 : 526.18109 : 1"
       inkscape:persp3d-origin="372.04724 : 350.78739 : 1"
       id="perspective10" />
  </defs>
  <sodipodi:namedview
     id="base"
     pagecolor="#ffffff"
     bordercolor="#666666"
     borderopacity="1.0"
     inkscape:pageopacity="0.0"
     inkscape:pageshadow="2"
     inkscape:zoom="0.16"
     inkscape:cx="-830.25433"
     inkscape:cy="564.91253"
     inkscape:document-units="px"
     inkscape:current-layer="layer1"
     showgrid="false"
     inkscape:window-width="1440"
     inkscape:window-height="844"
     inkscape:window-x="-4"
     inkscape:window-y="-4" />
  <metadata
     id="metadata7">
    <rdf:RDF>
      <cc:Work
         rdf:about="">
        <dc:format>image/svg+xml</dc:format>
        <dc:type
           rdf:resource="http://purl.org/dc/dcmitype/StillImage" />
      </cc:Work>
    </rdf:RDF>
  </metadata>
  <g
     inkscape:label="Calque 1"
     inkscape:groupmode="layer"
     id="layer1"
     transform="translate(1111.9629,234.17286)">
    <path
       sodipodi:type="star"
       style="opacity:1;fill:#ffd100;fill-opacity:1;stroke:#ff0004;stroke-width:20;stroke-miterlimit:4;stroke-dasharray:none;stroke-opacity:1"
       id="path2383"
       sodipodi:sides="5"
       sodipodi:cx="22.857143"
       sodipodi:cy="186.6479"
       sodipodi:r1="117.80302"
       sodipodi:r2="58.901508"
       sodipodi:arg1="0.68231655"
       sodipodi:arg2="1.3106351"
       inkscape:flatsided="false"
       inkscape:rounded="0"
       inkscape:randomized="0"
       d="M 114.28571,260.93362 L 38.008753,243.56729 L -19.539786,296.55719 L -26.594304,218.647 L -94.774171,180.28986 L -22.857141,149.50505 L -7.4460776,72.809134 L 44.055609,131.69326 L 121.76004,122.64971 L 81.6728,189.82692 L 114.28571,260.93362 z"
       transform="translate(-465.71429,25.714286)" />
    <path
       sodipodi:type="star"
       style="opacity:1;fill:#ffd100;fill-opacity:1;stroke:#ff0004;stroke-width:20;stroke-miterlimit:4;stroke-dasharray:none;stroke-opacity:1"
       id="path2385"
       sodipodi:sides="5"
       sodipodi:cx="-177.14285"
       sodipodi:cy="315.21933"
       sodipodi:r1="190.65944"
       sodipodi:r2="95.32972"
       sodipodi:arg1="0.33596761"
       sodipodi:arg2="0.96428614"
       inkscape:flatsided="false"
       inkscape:rounded="0"
       inkscape:randomized="0"
       d="M 2.8571502,378.07647 L -122.80457,393.54625 L -181.30049,505.83343 L -234.84473,391.10245 L -359.71242,370.16818 L -267.14285,283.79076 L -285.81941,158.56548 L -175.06403,219.91228 L -61.739096,163.45308 L -85.858071,287.74491 L 2.8571502,378.07647 z"
       transform="translate(-465.71429,25.714286)" />
    <path
       sodipodi:type="star"
       style="opacity:1;fill:#ffd100;fill-opacity:1;stroke:#ff0004;stroke-width:20;stroke-miterlimit:4;stroke-dasharray:none;stroke-opacity:1"
       id="path2387"
       sodipodi:sides="5"
       sodipodi:cx="-294.28571"
       sodipodi:cy="532.36218"
       sodipodi:r1="158.46201"
       sodipodi:r2="79.230995"
       sodipodi:arg1="0.44751998"
       sodipodi:arg2="1.0758385"
       inkscape:flatsided="false"
       inkscape:rounded="0"
       inkscape:randomized="0"
       d="M -151.42855,600.93362 L -256.65142,602.08457 L -315.35573,689.41715 L -348.966,589.69992 L -450.16485,560.85605 L -365.71427,498.07647 L -369.55429,392.9174 L -283.7507,453.83471 L -184.92511,417.6867 L -216.34614,518.11525 L -151.42855,600.93362 z"
       transform="translate(-465.71429,25.714286)" />
    <path
       sodipodi:type="star"
       style="opacity:1;fill:#ffd100;fill-opacity:1;stroke:#ff0004;stroke-width:20;stroke-miterlimit:4;stroke-dasharray:none;stroke-opacity:1"
       id="path2389"
       sodipodi:sides="5"
       sodipodi:cx="91.428574"
       sodipodi:cy="535.21936"
       sodipodi:r1="225.18925"
       sodipodi:r2="112.59462"
       sodipodi:arg1="2.5183933"
       sodipodi:arg2="3.1467119"
       inkscape:flatsided="false"
       inkscape:rounded="0"
       inkscape:randomized="0"
       d="M -91.42856,666.64793 L -21.164571,534.64296 L -90.073387,401.92555 L 57.183565,427.9588 L 162.11133,321.41069 L 182.85714,469.50509 L 316.61488,536.37214 L 182.17954,601.86627 L 159.91861,749.74049 L 56.087192,642.12369 L -91.42856,666.64793 z"
       transform="translate(-465.71429,25.714286)" />
    <path
       sodipodi:type="star"
       style="opacity:1;fill:#ffd100;fill-opacity:1;stroke:#ff0004;stroke-width:20;stroke-miterlimit:4;stroke-dasharray:none;stroke-opacity:1"
       id="path2391"
       sodipodi:sides="5"
       sodipodi:cx="-94.285713"
       sodipodi:cy="958.07648"
       sodipodi:r1="144.13712"
       sodipodi:r2="72.068558"
       sodipodi:arg1="-0.24017101"
       sodipodi:arg2="0.38814752"
       inkscape:flatsided="false"
       inkscape:rounded="0"
       inkscape:randomized="0"
       d="M 45.71428,923.79076 L -27.578208,985.35258 L -18.415686,1080.6295 L -99.613076,1029.9479 L -187.39545,1068.1041 L -164.28571,975.21933 L -227.70072,903.52427 L -132.22073,896.79996 L -83.630987,814.3337 L -47.730845,903.06265 L 45.71428,923.79076 z"
       transform="translate(-465.71429,25.714286)" />
    <path
       sodipodi:type="star"
       style="opacity:1;fill:#ffd100;fill-opacity:1;stroke:#ff0004;stroke-width:20;stroke-miterlimit:4;stroke-dasharray:none;stroke-opacity:1"
       id="path2393"
       sodipodi:sides="5"
       sodipodi:cx="331.42856"
       sodipodi:cy="898.07648"
       sodipodi:r1="210.20885"
       sodipodi:r2="105.10441"
       sodipodi:arg1="2.5988422"
       sodipodi:arg2="3.2271607"
       inkscape:flatsided="false"
       inkscape:rounded="0"
       inkscape:randomized="0"
       d="M 151.42854,1006.6479 L 226.7087,889.09387 L 172.54793,760.43671 L 307.61131,795.70619 L 413.23495,704.439 L 421.42855,843.79077 L 540.86831,916.0417 L 410.86886,966.89635 L 379.06306,1102.8171 L 290.52537,994.89521 L 151.42854,1006.6479 z"
       transform="translate(-465.71429,25.714286)" />
    <path
       sodipodi:type="star"
       style="opacity:1;fill:#ffd100;fill-opacity:1;stroke:#ff0004;stroke-width:20;stroke-miterlimit:4;stroke-dasharray:none;stroke-opacity:1"
       id="path2395"
       sodipodi:sides="5"
       sodipodi:cx="-11.428571"
       sodipodi:cy="729.50507"
       sodipodi:r1="118.28709"
       sodipodi:r2="59.143539"
       sodipodi:arg1="0.92246434"
       sodipodi:arg2="1.5507829"
       inkscape:flatsided="false"
       inkscape:rounded="0"
       inkscape:randomized="0"
       d="M 59.999996,823.79077 L -10.244985,788.63676 L -79.026967,826.57356 L -67.300407,748.90342 L -124.63524,695.21098 L -47.14285,682.36221 L -13.795746,611.24167 L 22.370627,680.97083 L 100.31511,690.70835 L 45.174761,746.65211 L 59.999996,823.79077 z"
       transform="translate(-465.71429,25.714286)" />
    <path
       sodipodi:type="star"
       style="opacity:1;fill:#ffd100;fill-opacity:1;stroke:#ff0004;stroke-width:20;stroke-miterlimit:4;stroke-dasharray:none;stroke-opacity:1"
       id="path2397"
       sodipodi:sides="5"
       sodipodi:cx="-345.71429"
       sodipodi:cy="803.79077"
       sodipodi:r1="161.24515"
       sodipodi:r2="80.622574"
       sodipodi:arg1="0.12435499"
       sodipodi:arg2="0.75267353"
       inkscape:flatsided="false"
       inkscape:rounded="0"
       inkscape:randomized="0"
       d="M -185.7143,823.79077 L -286.87079,858.90376 L -315.29271,962.14015 L -379.94622,876.78512 L -486.91271,881.65607 L -425.71429,793.79077 L -463.4013,693.5648 L -360.92509,724.61608 L -277.25045,657.80208 L -275.11509,764.85812 L -185.7143,823.79077 z"
       transform="translate(-465.71429,25.714286)" />
    <path
       sodipodi:type="star"
       style="opacity:1;fill:#ffd100;fill-opacity:1;stroke:#ff0004;stroke-width:20;stroke-miterlimit:4;stroke-dasharray:none;stroke-opacity:1"
       id="path2399"
       sodipodi:sides="5"
       sodipodi:cx="-28.571428"
       sodipodi:cy="15.219325"
       sodipodi:r1="107.81693"
       sodipodi:r2="53.908463"
       sodipodi:arg1="0.55859932"
       sodipodi:arg2="1.1869178"
       inkscape:flatsided="false"
       inkscape:rounded="0"
       inkscape:randomized="0"
       d="M 62.857147,72.362186 L -8.3816567,65.204277 L -54.664534,119.83118 L -69.87096,49.867139 L -136.12643,22.730148 L -74.285714,-13.352101 L -68.950969,-84.750589 L -15.524879,-37.086601 L 54.027645,-54.076303 L 25.206069,11.463911 L 62.857147,72.362186 z"
       transform="translate(-465.71429,25.714286)" />
    <path
       sodipodi:type="star"
       style="opacity:1;fill:#ffd100;fill-opacity:1;stroke:#ff0004;stroke-width:20;stroke-miterlimit:4;stroke-dasharray:none;stroke-opacity:1"
       id="path2401"
       sodipodi:sides="5"
       sodipodi:cx="262.85715"
       sodipodi:cy="95.219322"
       sodipodi:r1="176.88922"
       sodipodi:r2="88.444603"
       sodipodi:arg1="0.54318958"
       sodipodi:arg2="1.1715081"
       inkscape:flatsided="false"
       inkscape:rounded="0"
       inkscape:randomized="0"
       d="M 414.28572,186.6479 L 297.24111,176.70669 L 222.69741,267.48944 L 195.98328,153.10139 L 86.608492,110.25953 L 187.14287,49.50504 L 194.08923,-67.755429 L 282.93701,9.0842726 L 396.60489,-20.544826 L 350.98147,87.699216 L 414.28572,186.6479 z"
       transform="translate(-465.71429,25.714286)" />
    <path
       sodipodi:type="star"
       style="opacity:1;fill:#ffd100;fill-opacity:1;stroke:#ff0004;stroke-width:20;stroke-miterlimit:4;stroke-dasharray:none;stroke-opacity:1"
       id="path2403"
       sodipodi:sides="5"
       sodipodi:cx="508.57144"
       sodipodi:cy="346.64789"
       sodipodi:r1="76.238083"
       sodipodi:r2="38.119038"
       sodipodi:arg1="0.22679885"
       sodipodi:arg2="0.85511738"
       inkscape:flatsided="false"
       inkscape:rounded="0"
       inkscape:randomized="0"
       d="M 582.85716,363.79075 L 533.58248,375.41434 L 515.22316,422.59524 L 488.94176,379.32413 L 438.39672,376.44307 L 471.42859,338.07646 L 458.54935,289.11498 L 505.24558,308.67422 L 547.83082,281.29541 L 543.6588,331.7503 L 582.85716,363.79075 z"
       transform="translate(-465.71429,25.714286)" />
    <path
       sodipodi:type="star"
       style="opacity:1;fill:#ffd100;fill-opacity:1;stroke:#ff0004;stroke-width:20;stroke-miterlimit:4;stroke-dasharray:none;stroke-opacity:1"
       id="path2405"
       sodipodi:sides="5"
       sodipodi:cx="480"
       sodipodi:cy="3.7907541"
       sodipodi:r1="101.73996"
       sodipodi:r2="50.86998"
       sodipodi:arg1="0.66596924"
       sodipodi:arg2="1.2942878"
       inkscape:flatsided="false"
       inkscape:rounded="0"
       inkscape:randomized="0"
       d="M 560,66.647894 L 493.88743,52.728411 L 444.94067,99.299196 L 437.74897,32.121049 L 378.33214,-0.038922607 L 440,-27.637817 L 452.22514,-94.084558 L 497.52967,-43.963466 L 564.50205,-52.869839 L 530.83393,5.7055939 L 560,66.647894 z"
       transform="translate(-465.71429,25.714286)" />
    <path
       sodipodi:type="star"
       style="opacity:1;fill:#ffd100;fill-opacity:1;stroke:#ff0004;stroke-width:20;stroke-miterlimit:4;stroke-dasharray:none;stroke-opacity:1"
       id="path2407"
       sodipodi:sides="5"
       sodipodi:cx="622.85712"
       sodipodi:cy="235.21933"
       sodipodi:r1="14.285714"
       sodipodi:r2="7.1428571"
       sodipodi:arg1="0"
       sodipodi:arg2="0.62831853"
       inkscape:flatsided="false"
       inkscape:rounded="0"
       inkscape:randomized="0"
       d="M 637.14283,235.21933 L 628.63581,239.4178 L 627.27165,248.80585 L 620.64985,242.01259 L 611.29973,243.61626 L 615.71426,235.21933 L 611.29973,226.8224 L 620.64985,228.42607 L 627.27165,221.63281 L 628.63581,231.02086 L 637.14283,235.21933 z"
       transform="translate(-465.71429,25.714286)" />
    <path
       sodipodi:type="star"
       style="opacity:1;fill:#ffd100;fill-opacity:1;stroke:#ff0004;stroke-width:20;stroke-miterlimit:4;stroke-dasharray:none;stroke-opacity:1"
       id="path2409"
       sodipodi:sides="5"
       sodipodi:cx="591.42859"
       sodipodi:cy="100.93361"
       sodipodi:r1="47.552334"
       sodipodi:r2="23.776169"
       sodipodi:arg1="0.99945885"
       sodipodi:arg2="1.6277774"
       inkscape:flatsided="false"
       inkscape:rounded="0"
       inkscape:randomized="0"
       d="M 617.14287,140.93361 L 590.07453,124.67119 L 561.33248,137.75003 L 568.43438,106.98114 L 547.11389,83.687407 L 578.57145,80.933607 L 594.1367,53.458452 L 606.47665,82.525399 L 637.417,88.83855 L 613.58594,109.55671 L 617.14287,140.93361 z"
       transform="translate(-465.71429,25.714286)" />
    <path
       sodipodi:type="star"
       style="opacity:1;fill:#ffd100;fill-opacity:1;stroke:#ff0004;stroke-width:20;stroke-miterlimit:4;stroke-dasharray:none;stroke-opacity:1"
       id="path2411"
       sodipodi:sides="5"
       sodipodi:cx="345.71429"
       sodipodi:cy="269.50504"
       sodipodi:r1="74.285713"
       sodipodi:r2="37.14286"
       sodipodi:arg1="0.39479112"
       sodipodi:arg2="1.0231097"
       inkscape:flatsided="false"
       inkscape:rounded="0"
       inkscape:randomized="0"
       d="M 414.28572,298.07646 L 365.05509,301.21506 L 339.73099,343.5494 L 321.5329,297.69816 L 273.44498,286.69554 L 311.42858,255.21932 L 307.03271,206.08499 L 348.70595,232.48285 L 394.07707,213.11879 L 381.84896,260.90978 L 414.28572,298.07646 z"
       transform="translate(-465.71429,25.714286)" />
    <path
       sodipodi:type="star"
       style="opacity:1;fill:#ffd100;fill-opacity:1;stroke:#ff0004;stroke-width:20;stroke-miterlimit:4;stroke-dasharray:none;stroke-opacity:1"
       id="path2413"
       sodipodi:sides="5"
       sodipodi:cx="322.85715"
       sodipodi:cy="660.93359"
       sodipodi:r1="70.566223"
       sodipodi:r2="35.283115"
       sodipodi:arg1="0.5543075"
       sodipodi:arg2="1.182626"
       inkscape:flatsided="false"
       inkscape:rounded="0"
       inkscape:randomized="0"
       d="M 382.85715,698.07645 L 336.21165,693.59176 L 306.07321,729.47476 L 295.92416,683.72641 L 252.4841,666.15151 L 292.85714,642.36216 L 296.14815,595.61728 L 331.24912,626.66301 L 376.72312,615.34798 L 358.04367,658.32464 L 382.85715,698.07645 z"
       transform="translate(-465.71429,25.714286)" />
    <path
       sodipodi:type="star"
       style="opacity:1;fill:#ffd100;fill-opacity:1;stroke:#ff0004;stroke-width:20;stroke-miterlimit:4;stroke-dasharray:none;stroke-opacity:1"
       id="path2415"
       sodipodi:sides="5"
       sodipodi:cx="508.57144"
       sodipodi:cy="806.64789"
       sodipodi:r1="74.996597"
       sodipodi:r2="37.498302"
       sodipodi:arg1="0.70449406"
       sodipodi:arg2="1.3328126"
       inkscape:flatsided="false"
       inkscape:rounded="0"
       inkscape:randomized="0"
       d="M 565.7143,855.21932 L 517.41143,843.08931 L 480.03538,876.00337 L 476.6453,826.31623 L 433.79233,800.94051 L 480.00001,782.36217 L 490.89147,733.76505 L 522.83947,771.97014 L 572.42373,767.3112 L 545.961,809.50158 L 565.7143,855.21932 z"
       transform="translate(-465.71429,25.714286)" />
    <path
       sodipodi:type="star"
       style="opacity:1;fill:#ffd100;fill-opacity:1;stroke:#ff0004;stroke-width:20;stroke-miterlimit:4;stroke-dasharray:none;stroke-opacity:1"
       id="path2417"
       sodipodi:sides="5"
       sodipodi:cx="37.142857"
       sodipodi:cy="1000.9336"
       sodipodi:r1="78.037148"
       sodipodi:r2="39.018574"
       sodipodi:arg1="0.41450687"
       sodipodi:arg2="1.0428254"
       inkscape:flatsided="false"
       inkscape:rounded="0"
       inkscape:randomized="0"
       d="M 108.57143,1032.3622 L 56.799696,1034.639 L 29.325151,1078.5782 L 11.161361,1030.0439 L -39.117325,1017.492 L 1.4285694,985.21931 L -2.1708226,933.52268 L 41.051709,962.11131 L 89.105848,942.71295 L 75.272948,992.65439 L 108.57143,1032.3622 z"
       transform="translate(-465.71429,25.714286)" />
    <path
       sodipodi:type="star"
       style="opacity:1;fill:#ffd100;fill-opacity:1;stroke:#ff0004;stroke-width:20;stroke-miterlimit:4;stroke-dasharray:none;stroke-opacity:1"
       id="path2419"
       sodipodi:sides="5"
       sodipodi:cx="482.85715"
       sodipodi:cy="1032.3622"
       sodipodi:r1="96.044205"
       sodipodi:r2="48.022106"
       sodipodi:arg1="0.53021577"
       sodipodi:arg2="1.1585343"
       inkscape:flatsided="false"
       inkscape:rounded="0"
       inkscape:randomized="0"
       d="M 565.71429,1080.9336 L 502.09878,1076.3608 L 462.26724,1126.1734 L 446.95793,1064.2584 L 387.27474,1041.7693 L 441.42857,1008.0765 L 444.37388,944.36487 L 493.1521,985.45657 L 554.65558,968.56976 L 530.64835,1027.6586 L 565.71429,1080.9336 z"
       transform="translate(-465.71429,25.714286)" />
    <path
       sodipodi:type="star"
       style="opacity:1;fill:#ffd100;fill-opacity:1;stroke:#ff0004;stroke-width:20;stroke-miterlimit:4;stroke-dasharray:none;stroke-opacity:1"
       id="path2421"
       sodipodi:sides="5"
       sodipodi:cx="651.42859"
       sodipodi:cy="986.64789"
       sodipodi:r1="103.01575"
       sodipodi:r2="51.507877"
       sodipodi:arg1="0.33929261"
       sodipodi:arg2="0.96761115"
       inkscape:flatsided="false"
       inkscape:rounded="0"
       inkscape:randomized="0"
       d="M 748.57144,1020.9336 L 680.64738,1029.0663 L 648.83973,1089.6311 L 620.11536,1027.5446 L 552.68573,1016.0093 L 602.85716,969.50503 L 592.99101,901.81103 L 652.72302,935.15628 L 714.05503,904.85441 L 700.80002,971.96718 L 748.57144,1020.9336 z"
       transform="translate(-465.71429,25.714286)" />
    <path
       sodipodi:type="star"
       style="opacity:1;fill:#ffd100;fill-opacity:1;stroke:#ff0004;stroke-width:20;stroke-miterlimit:4;stroke-dasharray:none;stroke-opacity:1"
       id="path2423"
       sodipodi:sides="5"
       sodipodi:cx="891.42859"
       sodipodi:cy="1029.505"
       sodipodi:r1="94.588257"
       sodipodi:r2="47.294132"
       sodipodi:arg1="0.43662716"
       sodipodi:arg2="1.0649457"
       inkscape:flatsided="false"
       inkscape:rounded="0"
       inkscape:randomized="0"
       d="M 977.14287,1069.505 L 914.34504,1070.8761 L 879.8735,1123.3848 L 859.16387,1064.0842 L 798.57287,1047.5259 L 848.57144,1009.505 L 845.59569,946.76273 L 897.20613,982.5651 L 955.95802,960.34656 L 937.85645,1020.4945 L 977.14287,1069.505 z"
       transform="translate(-465.71429,25.714286)" />
    <path
       sodipodi:type="star"
       style="opacity:1;fill:#ffd100;fill-opacity:1;stroke:#ff0004;stroke-width:20;stroke-miterlimit:4;stroke-dasharray:none;stroke-opacity:1"
       id="path2425"
       sodipodi:sides="5"
       sodipodi:cx="657.14288"
       sodipodi:cy="769.50507"
       sodipodi:r1="105.05586"
       sodipodi:r2="52.527939"
       sodipodi:arg1="0.39060704"
       sodipodi:arg2="1.0189256"
       inkscape:flatsided="false"
       inkscape:rounded="0"
       inkscape:randomized="0"
       d="M 754.28574,809.50506 L 684.68229,814.23498 L 649.11942,874.25409 L 623.11235,809.5189 L 555.04125,794.24352 L 608.57145,749.50506 L 602.06407,680.04525 L 661.15462,717.13055 L 725.20394,689.4774 L 708.19371,757.13584 L 754.28574,809.50506 z"
       transform="translate(-465.71429,25.714286)" />
    <path
       sodipodi:type="star"
       style="opacity:1;fill:#ffd100;fill-opacity:1;stroke:#ff0004;stroke-width:20;stroke-miterlimit:4;stroke-dasharray:none;stroke-opacity:1"
       id="path2427"
       sodipodi:sides="5"
       sodipodi:cx="974.28571"
       sodipodi:cy="826.64789"
       sodipodi:r1="91.160324"
       sodipodi:r2="45.580166"
       sodipodi:arg1="0.56192156"
       sodipodi:arg2="1.1902401"
       inkscape:flatsided="false"
       inkscape:rounded="0"
       inkscape:randomized="0"
       d="M 1051.4286,875.21932 L 991.21586,868.96717 L 951.92999,915.02451 L 939.26939,855.8268 L 883.32625,832.69621 L 935.71427,802.36217 L 940.42539,742.00934 L 985.46357,782.45958 L 1044.3183,768.29007 L 1019.7654,823.62373 L 1051.4286,875.21932 z"
       transform="translate(-465.71429,25.714286)" />
    <path
       sodipodi:type="star"
       style="opacity:1;fill:#ffd100;fill-opacity:1;stroke:#ff0004;stroke-width:20;stroke-miterlimit:4;stroke-dasharray:none;stroke-opacity:1"
       id="path2429"
       sodipodi:sides="5"
       sodipodi:cx="722.85712"
       sodipodi:cy="132.36218"
       sodipodi:r1="94.97583"
       sodipodi:r2="47.487923"
       sodipodi:arg1="0.27416745"
       sodipodi:arg2="0.90248598"
       inkscape:flatsided="false"
       inkscape:rounded="0"
       inkscape:randomized="0"
       d="M 814.28569,158.07647 L 752.28352,169.63402 L 726.65436,227.26207 L 696.50275,171.86598 L 633.77537,165.29925 L 677.14282,119.50504 L 664.00433,57.818522 L 720.95849,84.91223 L 775.56584,53.354595 L 767.398,115.89364 L 814.28569,158.07647 z"
       transform="translate(-465.71429,25.714286)" />
    <path
       sodipodi:type="star"
       style="opacity:1;fill:#ffd100;fill-opacity:1;stroke:#ff0004;stroke-width:20;stroke-miterlimit:4;stroke-dasharray:none;stroke-opacity:1"
       id="path2431"
       sodipodi:sides="5"
       sodipodi:cx="954.28571"
       sodipodi:cy="163.79076"
       sodipodi:r1="43.518703"
       sodipodi:r2="21.759356"
       sodipodi:arg1="0.40489179"
       sodipodi:arg2="1.0332103"
       inkscape:flatsided="false"
       inkscape:rounded="0"
       inkscape:randomized="0"
       d="M 994.28571,180.93361 L 965.42789,182.4809 L 950.34256,207.13045 L 939.95345,180.16317 L 911.84871,173.4333 L 934.2857,155.21933 L 932.00134,126.41048 L 956.25728,142.1209 L 982.95021,131.04593 L 975.50421,158.96948 L 994.28571,180.93361 z"
       transform="translate(-465.71429,25.714286)" />
    <path
       sodipodi:type="star"
       style="opacity:1;fill:#ffd100;fill-opacity:1;stroke:#ff0004;stroke-width:20;stroke-miterlimit:4;stroke-dasharray:none;stroke-opacity:1"
       id="path2433"
       sodipodi:sides="5"
       sodipodi:cx="1062.8571"
       sodipodi:cy="118.07647"
       sodipodi:r1="62.922043"
       sodipodi:r2="31.461027"
       sodipodi:arg1="0.68892439"
       sodipodi:arg2="1.3172429"
       inkscape:flatsided="false"
       inkscape:rounded="0"
       inkscape:randomized="0"
       d="M 1111.4285,158.07647 L 1070.7489,148.5316 L 1039.8242,176.63132 L 1036.3312,134.99322 L 1000.0505,114.26536 L 1038.5713,98.076467 L 1047.0734,57.166222 L 1074.3735,88.799038 L 1115.9087,84.242976 L 1094.2603,119.98202 L 1111.4285,158.07647 z"
       transform="translate(-465.71429,25.714286)" />
    <path
       sodipodi:type="star"
       style="opacity:1;fill:#ffd100;fill-opacity:1;stroke:#ff0004;stroke-width:20;stroke-miterlimit:4;stroke-dasharray:none;stroke-opacity:1"
       id="path2435"
       sodipodi:sides="5"
       sodipodi:cx="868.57141"
       sodipodi:cy="55.219326"
       sodipodi:r1="64.775909"
       sodipodi:r2="32.387959"
       sodipodi:arg1="0.72297935"
       sodipodi:arg2="1.3512979"
       inkscape:flatsided="false"
       inkscape:rounded="0"
       inkscape:randomized="0"
       d="M 917.14284,98.076469 L 875.62357,86.830193 L 842.82124,114.65709 L 840.68693,71.694622 L 804.0855,49.096739 L 844.28569,33.790751 L 854.4671,-8.0024008 L 881.4465,25.500443 L 924.34037,22.268737 L 900.81437,58.280621 L 917.14284,98.076469 z"
       transform="translate(-465.71429,25.714286)" />
    <path
       sodipodi:type="star"
       style="opacity:1;fill:#ffd100;fill-opacity:1;stroke:#ff0004;stroke-width:20;stroke-miterlimit:4;stroke-dasharray:none;stroke-opacity:1"
       id="path2437"
       sodipodi:sides="5"
       sodipodi:cx="840"
       sodipodi:cy="163.79076"
       sodipodi:r1="77.984825"
       sodipodi:r2="38.992416"
       sodipodi:arg1="0.49642275"
       sodipodi:arg2="1.1247413"
       inkscape:flatsided="false"
       inkscape:rounded="0"
       inkscape:randomized="0"
       d="M 908.57143,200.93361 L 856.82172,198.968 L 825.86478,240.48384 L 811.74265,190.65952 L 762.69252,174.04683 L 805.71428,145.21932 L 806.35657,93.436278 L 847.06761,125.44421 L 896.51469,110.05322 L 878.65374,158.66272 L 908.57143,200.93361 z"
       transform="translate(-465.71429,25.714286)" />
    <path
       sodipodi:type="star"
       style="opacity:1;fill:#ffd100;fill-opacity:1;stroke:#ff0004;stroke-width:20;stroke-miterlimit:4;stroke-dasharray:none;stroke-opacity:1"
       id="path2439"
       sodipodi:sides="5"
       sodipodi:cx="985.71429"
       sodipodi:cy="12.362183"
       sodipodi:r1="58.901508"
       sodipodi:r2="29.45076"
       sodipodi:arg1="0.88847977"
       sodipodi:arg2="1.5167983"
       inkscape:flatsided="false"
       inkscape:rounded="0"
       inkscape:randomized="0"
       d="M 1022.8572,58.076468 L 987.3038,41.770017 L 953.7152,61.81363 L 958.23697,22.961417 L 928.79491,-2.7894275 L 967.14286,-10.494964 L 982.53527,-46.453474 L 1001.7138,-12.363546 L 1040.6689,-8.8362824 L 1014.174,19.937989 L 1022.8572,58.076468 z"
       transform="translate(-465.71429,25.714286)" />
    <path
       sodipodi:type="star"
       style="opacity:1;fill:#ffd100;fill-opacity:1;stroke:#ff0004;stroke-width:20;stroke-miterlimit:4;stroke-dasharray:none;stroke-opacity:1"
       id="path2441"
       sodipodi:sides="5"
       sodipodi:cx="662.85712"
       sodipodi:cy="-41.923531"
       sodipodi:r1="78.817795"
       sodipodi:r2="39.408905"
       sodipodi:arg1="0.81103357"
       sodipodi:arg2="1.4393521"
       inkscape:flatsided="false"
       inkscape:rounded="0"
       inkscape:randomized="0"
       d="M 717.14283,15.219326 L 668.02229,-2.854581 L 625.28624,27.363365 L 627.29646,-24.938193 L 585.35132,-56.244731 L 635.71425,-70.494964 L 652.52678,-120.06141 L 681.64256,-76.566985 L 733.97841,-75.894199 L 701.61002,-34.762929 L 717.14283,15.219326 z"
       transform="translate(-465.71429,25.714286)" />
    <path
       sodipodi:type="star"
       style="opacity:1;fill:#ffd100;fill-opacity:1;stroke:#ff0004;stroke-width:20;stroke-miterlimit:4;stroke-dasharray:none;stroke-opacity:1"
       id="path2443"
       sodipodi:sides="5"
       sodipodi:cx="454.28571"
       sodipodi:cy="152.36218"
       sodipodi:r1="72.84314"
       sodipodi:r2="36.421574"
       sodipodi:arg1="0.72989966"
       sodipodi:arg2="1.3582182"
       inkscape:flatsided="false"
       inkscape:rounded="0"
       inkscape:randomized="0"
       d="M 508.57142,200.93361 L 461.96995,187.96391 L 424.86674,219.00037 L 422.80101,170.67188 L 381.81807,144.97541 L 427.14284,128.07646 L 438.91721,81.158726 L 468.99519,119.04309 L 517.25509,115.7428 L 490.51953,156.05557 L 508.57142,200.93361 z"
       transform="translate(-465.71429,25.714286)" />
    <path
       sodipodi:type="star"
       style="opacity:1;fill:#ffd100;fill-opacity:1;stroke:#ff0004;stroke-width:20;stroke-miterlimit:4;stroke-dasharray:none;stroke-opacity:1"
       id="path2445"
       sodipodi:sides="5"
       sodipodi:cx="-317.14285"
       sodipodi:cy="-84.780678"
       sodipodi:r1="165.1468"
       sodipodi:r2="82.573418"
       sodipodi:arg1="0.92037491"
       sodipodi:arg2="1.5486934"
       inkscape:flatsided="false"
       inkscape:rounded="0"
       inkscape:randomized="0"
       d="M -217.14286,46.647888 L -315.31789,-2.2274295 L -411.23715,50.938631 L -395.09171,-57.534676 L -475.29632,-132.3301 L -367.14286,-150.49497 L -320.79278,-249.88714 L -270.0957,-152.64035 L -161.24516,-139.27267 L -238.0661,-61.005967 L -217.14286,46.647888 z"
       transform="translate(-465.71429,25.714286)" />
    <path
       sodipodi:type="star"
       style="opacity:1;fill:#ffd100;fill-opacity:1;stroke:#ff0004;stroke-width:20;stroke-miterlimit:4;stroke-dasharray:none;stroke-opacity:1"
       id="path2447"
       sodipodi:sides="5"
       sodipodi:cx="-460"
       sodipodi:cy="186.6479"
       sodipodi:r1="176.88922"
       sodipodi:r2="88.444626"
       sodipodi:arg1="0.54318958"
       sodipodi:arg2="1.1715081"
       inkscape:flatsided="false"
       inkscape:rounded="0"
       inkscape:randomized="0"
       d="M -308.57143,278.07648 L -425.61603,268.13529 L -500.15974,358.91802 L -526.87388,244.52999 L -636.24866,201.68812 L -535.7143,140.93361 L -528.76792,23.673152 L -439.92013,100.51283 L -326.25226,70.883755 L -371.87566,179.12779 L -308.57143,278.07648 z"
       transform="translate(-465.71429,25.714286)" />
  </g>
</svg>
