<?xml version="1.0" encoding="UTF-8" standalone="no"?>
<!-- Created with Inkscape (http://www.inkscape.org/) -->

<svg
   xmlns:dc="http://purl.org/dc/elements/1.1/"
   xmlns:cc="http://creativecommons.org/ns#"
   xmlns:rdf="http://www.w3.org/1999/02/22-rdf-syntax-ns#"
   xmlns:svg="http://www.w3.org/2000/svg"
   xmlns="http://www.w3.org/2000/svg"
   xmlns:sodipodi="http://sodipodi.sourceforge.net/DTD/sodipodi-0.dtd"
   xmlns:inkscape="http://www.inkscape.org/namespaces/inkscape"
   width="263.10959"
   height="194.46193"
   id="svg6085"
   version="1.1"
   inkscape:version="0.48.2 r9819"
   sodipodi:docname="guichet.svg">
  <defs
     id="defs6087">
    <filter
       inkscape:collect="always"
       id="filter3805">
      <feGaussianBlur
         inkscape:collect="always"
         stdDeviation="5.8603326"
         id="feGaussianBlur3807" />
    </filter>
  </defs>
  <sodipodi:namedview
     id="base"
     pagecolor="#ffffff"
     bordercolor="#666666"
     borderopacity="1.0"
     inkscape:pageopacity="0.0"
     inkscape:pageshadow="2"
     inkscape:zoom="1.979899"
     inkscape:cx="-14.635707"
     inkscape:cy="77.930734"
     inkscape:document-units="px"
     inkscape:current-layer="layer1"
     showgrid="false"
     fit-margin-top="5"
     fit-margin-left="5"
     fit-margin-right="5"
     fit-margin-bottom="5"
     inkscape:window-width="1920"
     inkscape:window-height="1022"
     inkscape:window-x="0"
     inkscape:window-y="26"
     inkscape:window-maximized="1" />
  <metadata
     id="metadata6090">
    <rdf:RDF>
      <cc:Work
         rdf:about="">
        <dc:format>image/svg+xml</dc:format>
        <dc:type
           rdf:resource="http://purl.org/dc/dcmitype/StillImage" />
        <dc:title></dc:title>
      </cc:Work>
    </rdf:RDF>
  </metadata>
  <g
     inkscape:label="Calque 1"
     inkscape:groupmode="layer"
     id="layer1"
     transform="translate(-385.39044,-506.11458)">
    <g
       id="g3005"
       transform="translate(-118.69293,-30.304577)">
      <path
         inkscape:connector-curvature="0"
         id="path6764-7"
         d="m 619.45291,680.63741 0,-45.5 -55.55479,0 -55.55479,0 0.30479,-4.75 0.30479,-4.75 58,-0.27637 c 31.9,-0.15201 59.0125,-0.0309 60.25,0.26905 l 2.25,0.54542 0,44.98095 0,44.98095 44.98255,0 44.98255,0 0.26745,-52.46691 0.26745,-52.4669 -4.85802,-1.58874 c -13.72103,-4.48724 -22.27992,-15.30636 -23.3786,-29.55241 -1.07245,-13.90597 5.49819,-25.44001 18.18685,-31.92504 6.17638,-3.15668 7.64275,-3.49818 14.94895,-3.48145 6.75223,0.0155 9.01644,0.46796 13.60082,2.71814 5.85421,2.87345 14,10.07572 14,12.37839 0,0.76171 0.38886,1.38492 0.86414,1.38492 1.91975,0 4.53849,9.6168 4.49309,16.5 -0.0974,14.76069 -8.41815,26.49783 -22.39895,31.59548 l -5.95828,2.1725 0,52.36601 0,52.36601 16,0 16,0 0,5 0,5 -71,0 -71,0 0,-45.5 z m 116.07069,-82.25 c 4.04707,-2.04988 6.35753,-4.13903 9.07526,-8.20598 3.42001,-5.11787 3.63534,-5.90273 3.47462,-12.6652 -0.15761,-6.63171 -0.48842,-7.66962 -4.12946,-12.95625 -5.39488,-7.83313 -11.8271,-10.91023 -21.22867,-10.15556 -7.63351,0.61274 -12.93621,3.76991 -17.68843,10.53149 -3.80167,5.40912 -4.73383,14.87604 -2.13484,21.68138 1.81298,4.74723 7.8697,10.87774 12.91617,13.07354 5.40175,2.35039 13.56747,1.81054 19.71535,-1.30342 z m -17.91407,-26.7703 c -2.80503,-3.01384 -5.33779,-5.4797 -5.62834,-5.4797 -0.29055,0 -0.52828,1.575 -0.52828,3.5 0,1.925 -0.45,3.5 -1,3.5 -0.55556,0 -1,-2.66667 -1,-6 l 0,-6 5.5,0 c 3.025,0 5.5,0.45 5.5,1 0,0.55 -1.35,1 -3,1 -1.65,0 -3,0.35867 -3,0.79705 0,0.43838 1.83562,2.57588 4.07916,4.75 4.67119,4.52666 6.31649,7.09039 5.05189,7.87196 -0.4809,0.29721 -3.16939,-1.92548 -5.97443,-4.93931 z m -194.15662,50.06272 c 0,-1.98678 9.46361,-31.32034 10.72632,-33.24748 2.98026,-4.54845 9.25975,-7.29494 16.67892,-7.29494 5.9388,0 6.66896,0.20563 6.21403,1.75 -0.28353,0.9625 -0.99912,4.675 -1.5902,8.25 -0.59108,3.575 -1.28414,7.45728 -1.54013,8.62728 -0.46717,2.13516 4.70404,9.87272 6.59819,9.87272 0.49958,0 2.40277,-2.10197 4.22932,-4.67105 2.40005,-3.37573 3.70466,-4.43394 4.70453,-3.81599 0.76094,0.47029 1.72151,0.64619 2.1346,0.39088 0.4131,-0.2553 1.21538,1.23689 1.78285,3.31599 0.56747,2.07909 1.90474,6.8108 2.97172,10.51491 l 1.93995,6.73473 -19.42505,-0.0962 c -12.26474,-0.0607 -19.42505,-0.46608 -19.42505,-1.09968 0,-0.55193 1.16113,-5.26564 2.5803,-10.47492 1.41916,-5.20928 2.33857,-9.71314 2.04312,-10.00858 -1.03744,-1.03745 -3.6241,0.66622 -3.68719,2.42853 -0.0351,0.97976 -1.2972,5.60638 -2.80472,10.28138 l -2.74095,8.5 -5.69528,0.2999 c -3.1324,0.16495 -5.69528,0.0491 -5.69528,-0.25748 z m 56.52576,-8.29242 c -3.34907,-11.29145 -4.20355,-13.25 -5.78075,-13.25 -0.89761,0 -1.18712,-1.16125 -0.93876,-3.76554 0.30334,-3.18087 -0.2748,-4.56168 -3.72357,-8.89316 -2.24548,-2.82019 -4.08268,-5.3557 -4.08268,-5.63446 0,-0.82346 7.2081,-0.57822 9.58683,0.32617 1.20504,0.45816 3.8147,2.25865 5.79923,4.00109 3.62401,3.18192 5.26067,7.37396 11.99212,30.7159 l 1.51402,5.25 -5.88558,0 -5.88559,0 -2.59527,-8.75 z m -22.51144,-9.22989 c -2.10553,-2.95695 -2.10873,-3.05129 -0.41465,-12.25 l 1.70722,-9.27011 2.34021,7 c 1.28712,3.85 2.84963,7.9761 3.47225,9.16911 0.93173,1.78531 0.74386,2.71425 -1.06175,5.25 -2.72101,3.8213 -3.38628,3.83242 -6.04328,0.101 z m 9.20528,-6.77011 c -1.55446,-1.35881 -7.2196,-15.294 -7.2196,-17.75885 0,-2.50501 7.63542,5.94008 11.59129,12.82046 1.34533,2.33991 0.63206,6.68839 -1.09708,6.68839 -0.69996,0 -2.17353,-0.7875 -3.27461,-1.75 z m -13.2196,-22.30902 c 0,-0.58246 -0.38114,-0.82346 -0.84698,-0.53556 -1.31132,0.81045 -6.08866,-4.69422 -7.08304,-8.1614 -1.24833,-4.3527 0.19471,-9.64252 3.72834,-13.66711 1.65558,-1.88559 3.29983,-4.74729 3.65389,-6.35933 1.0436,-4.75146 4.11377,-5.7147 11.65407,-3.65636 8.73302,2.38392 10.27759,3.85204 9.39844,8.93325 -0.38117,2.20304 -0.99097,6.72959 -1.3551,10.05901 -0.78852,7.20964 -3.08938,11.10557 -7.69528,13.03005 -3.96645,1.65728 -11.45434,1.89096 -11.45434,0.35745 z"
         style="fill:#00cbff;fill-opacity:1;filter:url(#filter3805)" />
    </g>
    <path
       sodipodi:type="arc"
       style="fill:#efefef;fill-opacity:1;fill-rule:nonzero;stroke:#000000;stroke-width:1.89999998;stroke-linecap:round;stroke-linejoin:round;stroke-miterlimit:4;stroke-opacity:1;stroke-dasharray:none"
       id="path2985"
       sodipodi:cx="-84.464287"
       sodipodi:cy="7.1405005"
       sodipodi:rx="23.75"
       sodipodi:ry="23.75"
       d="m -60.714287,7.1405005 c 0,13.1167625 -10.633237,23.7500005 -23.75,23.7500005 -13.116763,0 -23.750003,-10.633238 -23.750003,-23.7500005 0,-13.1167628 10.63324,-23.7499995 23.750003,-23.7499995 13.116763,0 23.75,10.6332367 23.75,23.7499995 z"
       transform="matrix(1.2611415,0,0,1.2160287,713.16186,538.14345)" />
    <path
       style="fill:#000000"
       d="m 501.50002,650.0765 0,-45.5 -55.55479,0 -55.55479,0 0.30479,-4.75 0.30479,-4.75 58,-0.27637 c 31.9,-0.15201 59.0125,-0.0309 60.25,0.26905 l 2.25,0.54542 0,44.98095 0,44.98095 44.98255,0 44.98255,0 0.26745,-52.46691 0.26745,-52.4669 -4.85802,-1.58874 c -13.72103,-4.48724 -22.27992,-15.30636 -23.3786,-29.55241 -1.07245,-13.90597 5.49819,-25.44001 18.18685,-31.92504 6.17638,-3.15668 7.64275,-3.49818 14.94895,-3.48145 6.75223,0.0155 9.01644,0.46796 13.60082,2.71814 5.85421,2.87345 14,10.07572 14,12.37839 0,0.76171 0.38886,1.38492 0.86414,1.38492 1.91975,0 4.53849,9.6168 4.49309,16.5 -0.0974,14.76069 -8.41815,26.49783 -22.39895,31.59548 l -5.95828,2.1725 0,52.36601 0,52.36601 16,0 16,0 0,5 0,5 -71,0 -71,0 0,-45.5 z m 116.07069,-82.25 c 4.04707,-2.04988 6.35753,-4.13903 9.07526,-8.20598 3.42001,-5.11787 3.63534,-5.90273 3.47462,-12.6652 -0.15761,-6.63171 -0.48842,-7.66962 -4.12946,-12.95625 -5.39488,-7.83313 -11.8271,-10.91023 -21.22867,-10.15556 -7.63351,0.61274 -12.93621,3.76991 -17.68843,10.53149 -3.80167,5.40912 -4.73383,14.87604 -2.13484,21.68138 1.81298,4.74723 7.8697,10.87774 12.91617,13.07354 5.40175,2.35039 13.56747,1.81054 19.71535,-1.30342 z m -17.91407,-26.7703 c -2.80503,-3.01384 -5.33779,-5.4797 -5.62834,-5.4797 -0.29055,0 -0.52828,1.575 -0.52828,3.5 0,1.925 -0.45,3.5 -1,3.5 -0.55556,0 -1,-2.66667 -1,-6 l 0,-6 5.5,0 c 3.025,0 5.5,0.45 5.5,1 0,0.55 -1.35,1 -3,1 -1.65,0 -3,0.35867 -3,0.79705 0,0.43838 1.83562,2.57588 4.07916,4.75 4.67119,4.52666 6.31649,7.09039 5.05189,7.87196 -0.4809,0.29721 -3.16939,-1.92548 -5.97443,-4.93931 z m -194.15662,50.06272 c 0,-1.98678 9.46361,-31.32034 10.72632,-33.24748 2.98026,-4.54845 9.25975,-7.29494 16.67892,-7.29494 5.9388,0 6.66896,0.20563 6.21403,1.75 -0.28353,0.9625 -0.99912,4.675 -1.5902,8.25 -0.59108,3.575 -1.28414,7.45728 -1.54013,8.62728 -0.46717,2.13516 4.70404,9.87272 6.59819,9.87272 0.49958,0 2.40277,-2.10197 4.22932,-4.67105 2.40005,-3.37573 3.70466,-4.43394 4.70453,-3.81599 0.76094,0.47029 1.72151,0.64619 2.1346,0.39088 0.4131,-0.2553 1.21538,1.23689 1.78285,3.31599 0.56747,2.07909 1.90474,6.8108 2.97172,10.51491 l 1.93995,6.73473 -19.42505,-0.0962 c -12.26474,-0.0607 -19.42505,-0.46608 -19.42505,-1.09968 0,-0.55193 1.16113,-5.26564 2.5803,-10.47492 1.41916,-5.20928 2.33857,-9.71314 2.04312,-10.00858 -1.03744,-1.03745 -3.6241,0.66622 -3.68719,2.42853 -0.0351,0.97976 -1.2972,5.60638 -2.80472,10.28138 l -2.74095,8.5 -5.69528,0.2999 c -3.1324,0.16495 -5.69528,0.0491 -5.69528,-0.25748 z m 56.52576,-8.29242 c -3.34907,-11.29145 -4.20355,-13.25 -5.78075,-13.25 -0.89761,0 -1.18712,-1.16125 -0.93876,-3.76554 0.30334,-3.18087 -0.2748,-4.56168 -3.72357,-8.89316 -2.24548,-2.82019 -4.08268,-5.3557 -4.08268,-5.63446 0,-0.82346 7.2081,-0.57822 9.58683,0.32617 1.20504,0.45816 3.8147,2.25865 5.79923,4.00109 3.62401,3.18192 5.26067,7.37396 11.99212,30.7159 l 1.51402,5.25 -5.88558,0 -5.88559,0 -2.59527,-8.75 z m -22.51144,-9.22989 c -2.10553,-2.95695 -2.10873,-3.05129 -0.41465,-12.25 l 1.70722,-9.27011 2.34021,7 c 1.28712,3.85 2.84963,7.9761 3.47225,9.16911 0.93173,1.78531 0.74386,2.71425 -1.06175,5.25 -2.72101,3.8213 -3.38628,3.83242 -6.04328,0.101 z m 9.20528,-6.77011 c -1.55446,-1.35881 -7.2196,-15.294 -7.2196,-17.75885 0,-2.50501 7.63542,5.94008 11.59129,12.82046 1.34533,2.33991 0.63206,6.68839 -1.09708,6.68839 -0.69996,0 -2.17353,-0.7875 -3.27461,-1.75 z m -13.2196,-22.30902 c 0,-0.58246 -0.38114,-0.82346 -0.84698,-0.53556 -1.31132,0.81045 -6.08866,-4.69422 -7.08304,-8.1614 -1.24833,-4.3527 0.19471,-9.64252 3.72834,-13.66711 1.65558,-1.88559 3.29983,-4.74729 3.65389,-6.35933 1.0436,-4.75146 4.11377,-5.7147 11.65407,-3.65636 8.73302,2.38392 10.27759,3.85204 9.39844,8.93325 -0.38117,2.20304 -0.99097,6.72959 -1.3551,10.05901 -0.78852,7.20964 -3.08938,11.10557 -7.69528,13.03005 -3.96645,1.65728 -11.45434,1.89096 -11.45434,0.35745 z"
       id="path6764"
       inkscape:connector-curvature="0" />
  </g>
</svg>
