<?xml version="1.0" encoding="UTF-8" standalone="no"?>
<!-- Created with Inkscape (http://www.inkscape.org/) -->
<svg
   xmlns:dc="http://purl.org/dc/elements/1.1/"
   xmlns:cc="http://creativecommons.org/ns#"
   xmlns:rdf="http://www.w3.org/1999/02/22-rdf-syntax-ns#"
   xmlns:svg="http://www.w3.org/2000/svg"
   xmlns="http://www.w3.org/2000/svg"
   xmlns:sodipodi="http://sodipodi.sourceforge.net/DTD/sodipodi-0.dtd"
   xmlns:inkscape="http://www.inkscape.org/namespaces/inkscape"
   width="263.10959"
   height="194.46193"
   id="svg6085"
   version="1.1"
   inkscape:version="0.46"
   sodipodi:docname="guichet_sel.svg"
   sodipodi:version="0.32"
   inkscape:output_extension="org.inkscape.output.svg.inkscape"
   inkscape:export-filename="Y:\USDP\SGBag\res\img\svg\guichet_sel.png"
   inkscape:export-xdpi="308.71497"
   inkscape:export-ydpi="308.71497">
  <defs
     id="defs6087">
    <inkscape:perspective
       sodipodi:type="inkscape:persp3d"
       inkscape:vp_x="0 : 97.230965 : 1"
       inkscape:vp_y="0 : 1000 : 0"
       inkscape:vp_z="263.10959 : 97.230965 : 1"
       inkscape:persp3d-origin="131.55479 : 64.820643 : 1"
       id="perspective13" />
    <filter
       inkscape:collect="always"
       id="filter3226"
       x="-0.39410006"
       width="1.7882001"
       y="-0.56843715"
       height="2.1368743">
      <feGaussianBlur
         inkscape:collect="always"
         stdDeviation="38.400176"
         id="feGaussianBlur3228" />
    </filter>
  </defs>
  <sodipodi:namedview
     id="base"
     pagecolor="#ffffff"
     bordercolor="#666666"
     borderopacity="1.0"
     inkscape:pageopacity="0.0"
     inkscape:pageshadow="2"
     inkscape:zoom="1.979899"
     inkscape:cx="140.92921"
     inkscape:cy="77.930734"
     inkscape:document-units="px"
     inkscape:current-layer="layer1"
     showgrid="false"
     fit-margin-top="5"
     fit-margin-left="5"
     fit-margin-right="5"
     fit-margin-bottom="5"
     inkscape:window-width="1440"
     inkscape:window-height="878"
     inkscape:window-x="0"
     inkscape:window-y="0"
     inkscape:window-maximized="1" />
  <metadata
     id="metadata6090">
    <rdf:RDF>
      <cc:Work
         rdf:about="">
        <dc:format>image/svg+xml</dc:format>
        <dc:type
           rdf:resource="http://purl.org/dc/dcmitype/StillImage" />
        <dc:title />
      </cc:Work>
    </rdf:RDF>
  </metadata>
  <g
     inkscape:label="Calque 1"
     inkscape:groupmode="layer"
     id="layer1"
     transform="translate(-385.39044,-506.11458)">
    <rect
       style="opacity:0.4693141;fill:#00fffb;fill-opacity:1;filter:url(#filter3226)"
       id="rect2386"
       width="233.85031"
       height="162.12949"
       x="14.142136"
       y="20.715693"
       transform="matrix(1.0799136,0,0,1.1246106,373.14861,486.86567)" />
    <path
       sodipodi:type="arc"
       style="fill:#efefef;fill-opacity:1;fill-rule:nonzero;stroke:#000000;stroke-width:1.89999998;stroke-linecap:round;stroke-linejoin:round;stroke-miterlimit:4;stroke-opacity:1;stroke-dasharray:none"
       id="path2985"
       sodipodi:cx="-84.464287"
       sodipodi:cy="7.1405005"
       sodipodi:rx="23.75"
       sodipodi:ry="23.75"
       d="m -60.714287,7.1405005 c 0,13.1167625 -10.633237,23.7500005 -23.75,23.7500005 -13.116763,0 -23.750003,-10.633238 -23.750003,-23.7500005 0,-13.1167628 10.63324,-23.7499995 23.750003,-23.7499995 13.116763,0 23.75,10.6332367 23.75,23.7499995 z"
       transform="matrix(1.2611415,0,0,1.2160287,713.16186,538.14345)" />
    <path
       style="fill:#850a0a;fill-opacity:1"
       d="M 502.0051,650.0765 L 502.0051,604.5765 L 446.45031,604.5765 L 390.89552,604.5765 L 391.20031,599.8265 L 391.5051,595.0765 L 449.5051,594.80013 C 481.4051,594.64812 508.5176,594.76923 509.7551,595.06918 L 512.0051,595.6146 L 512.0051,640.59555 L 512.0051,685.5765 L 556.98765,685.5765 L 601.9702,685.5765 L 602.23765,633.10959 L 602.5051,580.64269 L 597.64708,579.05395 C 583.92605,574.56671 575.36716,563.74759 574.26848,549.50154 C 573.19603,535.59557 579.76667,524.06153 592.45533,517.5765 C 598.63171,514.41982 600.09808,514.07832 607.40428,514.09505 C 614.15651,514.11055 616.42072,514.56301 621.0051,516.81319 C 626.85931,519.68664 635.0051,526.88891 635.0051,529.19158 C 635.0051,529.95329 635.39396,530.5765 635.86924,530.5765 C 637.78899,530.5765 640.40773,540.1933 640.36233,547.0765 C 640.26493,561.83719 631.94418,573.57433 617.96338,578.67198 L 612.0051,580.84448 L 612.0051,633.21049 L 612.0051,685.5765 L 628.0051,685.5765 L 644.0051,685.5765 L 644.0051,690.5765 L 644.0051,695.5765 L 573.0051,695.5765 L 502.0051,695.5765 L 502.0051,650.0765 L 502.0051,650.0765 z M 618.07579,567.8265 C 622.12286,565.77662 624.43332,563.68747 627.15105,559.62052 C 630.57106,554.50265 630.78639,553.71779 630.62567,546.95532 C 630.46806,540.32361 630.13725,539.2857 626.49621,533.99907 C 621.10133,526.16594 614.66911,523.08884 605.26754,523.84351 C 597.63403,524.45625 592.33133,527.61342 587.57911,534.375 C 583.77744,539.78412 582.84528,549.25104 585.44427,556.05638 C 587.25725,560.80361 593.31397,566.93412 598.36044,569.12992 C 603.76219,571.48031 611.92791,570.94046 618.07579,567.8265 L 618.07579,567.8265 z M 600.16172,541.0562 C 597.35669,538.04236 594.82393,535.5765 594.53338,535.5765 C 594.24283,535.5765 594.0051,537.1515 594.0051,539.0765 C 594.0051,541.0015 593.5551,542.5765 593.0051,542.5765 C 592.44954,542.5765 592.0051,539.90983 592.0051,536.5765 L 592.0051,530.5765 L 597.5051,530.5765 C 600.5301,530.5765 603.0051,531.0265 603.0051,531.5765 C 603.0051,532.1265 601.6551,532.5765 600.0051,532.5765 C 598.3551,532.5765 597.0051,532.93517 597.0051,533.37355 C 597.0051,533.81193 598.84072,535.94943 601.08426,538.12355 C 605.75545,542.65021 607.40075,545.21394 606.13615,545.99551 C 605.65525,546.29272 602.96676,544.07003 600.16172,541.0562 z M 406.0051,591.11892 C 406.0051,589.13214 415.46871,559.79858 416.73142,557.87144 C 419.71168,553.32299 425.99117,550.5765 433.41034,550.5765 C 439.34914,550.5765 440.0793,550.78213 439.62437,552.3265 C 439.34084,553.289 438.62525,557.0015 438.03417,560.5765 C 437.44309,564.1515 436.75003,568.03378 436.49404,569.20378 C 436.02687,571.33894 441.19808,579.0765 443.09223,579.0765 C 443.59181,579.0765 445.495,576.97453 447.32155,574.40545 C 449.7216,571.02972 451.02621,569.97151 452.02608,570.58946 C 452.78702,571.05975 453.74759,571.23565 454.16068,570.98034 C 454.57378,570.72504 455.37606,572.21723 455.94353,574.29633 C 456.511,576.37542 457.84827,581.10713 458.91525,584.81124 L 460.8552,591.54597 L 441.43015,591.44977 C 429.16541,591.38907 422.0051,590.98369 422.0051,590.35009 C 422.0051,589.79816 423.16623,585.08445 424.5854,579.87517 C 426.00456,574.66589 426.92397,570.16203 426.62852,569.86659 C 425.59108,568.82914 423.00442,570.53281 422.94133,572.29512 C 422.90623,573.27488 421.64413,577.9015 420.13661,582.5765 L 417.39566,591.0765 L 411.70038,591.3764 C 408.56798,591.54135 406.0051,591.4255 406.0051,591.11892 L 406.0051,591.11892 z M 462.53086,582.8265 C 459.18179,571.53505 458.32731,569.5765 456.75011,569.5765 C 455.8525,569.5765 455.56299,568.41525 455.81135,565.81096 C 456.11469,562.63009 455.53655,561.24928 452.08778,556.9178 C 449.8423,554.09761 448.0051,551.5621 448.0051,551.28334 C 448.0051,550.45988 455.2132,550.70512 457.59193,551.60951 C 458.79697,552.06767 461.40663,553.86816 463.39116,555.6106 C 467.01517,558.79252 468.65183,562.98456 475.38328,586.3265 L 476.8973,591.5765 L 471.01172,591.5765 L 465.12613,591.5765 L 462.53086,582.8265 L 462.53086,582.8265 z M 440.01942,573.59661 C 437.91389,570.63966 437.91069,570.54532 439.60477,561.34661 L 441.31199,552.0765 L 443.6522,559.0765 C 444.93932,562.9265 446.50183,567.0526 447.12445,568.24561 C 448.05618,570.03092 447.86831,570.95986 446.0627,573.49561 C 443.34169,577.31691 442.67642,577.32803 440.01942,573.59661 z M 449.2247,566.8265 C 447.67024,565.46769 442.0051,551.5325 442.0051,549.06765 C 442.0051,546.56264 449.64052,555.00773 453.59639,561.88811 C 454.94172,564.22802 454.22845,568.5765 452.49931,568.5765 C 451.79935,568.5765 450.32578,567.789 449.2247,566.8265 z M 436.0051,544.51748 C 436.0051,543.93502 435.62396,543.69402 435.15812,543.98192 C 433.8468,544.79237 429.06946,539.2877 428.07508,535.82052 C 426.82675,531.46782 428.26979,526.178 431.80342,522.15341 C 433.459,520.26782 435.10325,517.40612 435.45731,515.79408 C 436.50091,511.04262 439.57108,510.07938 447.11138,512.13772 C 455.8444,514.52164 457.38897,515.98976 456.50982,521.07097 C 456.12865,523.27401 455.51885,527.80056 455.15472,531.12998 C 454.3662,538.33962 452.06534,542.23555 447.45944,544.16003 C 443.49299,545.81731 436.0051,546.05099 436.0051,544.51748 L 436.0051,544.51748 z"
       id="path6764"
       inkscape:connector-curvature="0" />
  </g>
</svg>
